# Simple House Model
# Created for RiftCore Engine testing

mtllib house.mtl

# Vertices
v -1.0  0.0  1.0
v  1.0  0.0  1.0
v  1.0  0.0 -1.0
v -1.0  0.0 -1.0
v -1.0  1.5  1.0
v  1.0  1.5  1.0
v  1.0  1.5 -1.0
v -1.0  1.5 -1.0
v  0.0  2.8  1.0
v  0.0  2.8 -1.0

# Texture coordinates
vt 0.0 0.0
vt 1.0 0.0
vt 1.0 1.0
vt 0.0 1.0
vt 0.5 1.0

# Normals
vn  0.0  0.0  1.0
vn  0.0  0.0 -1.0
vn  1.0  0.0  0.0
vn -1.0  0.0  0.0
vn  0.0 -1.0  0.0
vn  0.0  1.0  0.0
vn  0.0  0.7  0.7
vn  0.0  0.7 -0.7

# Wall material
usemtl wall

# Front wall
f 1/1/1 2/2/1 6/3/1
f 1/1/1 6/3/1 5/4/1

# Back wall
f 3/2/2 4/1/2 8/4/2
f 3/2/2 8/4/2 7/3/2

# Right wall
f 2/1/3 3/2/3 7/3/3
f 2/1/3 7/3/3 6/4/3

# Left wall
f 4/2/4 1/1/4 5/4/4
f 4/2/4 5/4/4 8/3/4

# Floor
f 1/1/5 4/2/5 3/3/5
f 1/1/5 3/3/5 2/4/5

# Ceiling
f 5/4/6 6/3/6 7/2/6
f 5/4/6 7/2/6 8/1/6

# Roof material
usemtl roof

# Roof front triangle
f 5/1/7 6/2/7 9/5/7

# Roof back triangle
f 7/2/8 8/1/8 10/5/8

# Roof left slope
f 5/4/7 9/5/7 10/3/7
f 5/4/7 10/3/7 8/1/7

# Roof right slope
f 6/1/8 7/4/8 10/3/8
f 6/1/8 10/3/8 9/2/8
